<svg width="43" height="54" viewBox="0 0 43 54" fill="none" xmlns="http://www.w3.org/2000/svg">
<path d="M13.4375 43.2H24.1875C24.949 43.2 25.5877 42.9408 26.1037 42.4224C26.6179 41.9058 26.875 41.265 26.875 40.5V37.8L32.25 40.635V29.565L26.875 32.4V29.7C26.875 28.935 26.6179 28.2933 26.1037 27.7749C25.5877 27.2583 24.949 27 24.1875 27H13.4375C12.676 27 12.0382 27.2583 11.524 27.7749C11.008 28.2933 10.75 28.935 10.75 29.7V40.5C10.75 41.265 11.008 41.9058 11.524 42.4224C12.0382 42.9408 12.676 43.2 13.4375 43.2ZM5.375 54C3.89688 54 2.63196 53.4717 1.58025 52.4151C0.52675 51.3567 0 50.085 0 48.6V5.4C0 3.915 0.52675 2.6433 1.58025 1.5849C2.63196 0.5283 3.89688 0 5.375 0H26.875L43 16.2V48.6C43 50.085 42.4741 51.3567 41.4224 52.4151C40.3689 53.4717 39.1031 54 37.625 54H5.375ZM24.1875 18.9H37.625L24.1875 5.4V18.9Z" fill="black"/>
</svg>
