<svg width="54" height="54" viewBox="0 0 54 54" fill="none" xmlns="http://www.w3.org/2000/svg">
<path d="M50.1429 40.5V47.4159L40.5 37.773V25.0714C40.4998 24.7134 40.3999 24.3624 40.2116 24.0579C40.0232 23.7534 39.7538 23.5073 39.4335 23.3473L28.9286 18.0919V7.38257L33.9159 12.3699L36.6429 9.64286L27 0L17.3571 9.64286L20.0841 12.3699L25.0714 7.38257V18.0939L14.5665 23.3454C14.2459 23.5056 13.9763 23.7519 13.7879 24.0568C13.5995 24.3617 13.4998 24.713 13.5 25.0714V37.773L3.85714 47.4159V40.5H0V54H13.5V50.1429H6.58414L15.8085 40.9185L26.1379 46.0832C26.4057 46.2168 26.7008 46.2864 27 46.2864C27.2992 46.2864 27.5943 46.2168 27.8621 46.0832L38.1915 40.9185L47.4159 50.1429H40.5V54H54V40.5H50.1429ZM25.0714 41.2367L17.3571 37.3796V28.1919L25.0714 32.049V41.2367ZM27 28.701L19.7409 25.0714L27 21.4419L34.2591 25.0714L27 28.701ZM36.6429 37.3796L28.9286 41.2367V32.049L36.6429 28.1919V37.3796Z" fill="black"/>
</svg>
