<svg width="54" height="54" viewBox="0 0 54 54" fill="none" xmlns="http://www.w3.org/2000/svg">
<path d="M17.475 27L21.9 22.575C22.5 21.975 22.8 21.275 22.8 20.475C22.8 19.675 22.5 18.975 21.9 18.375C21.3 17.775 20.588 17.475 19.764 17.475C18.938 17.475 18.225 17.775 17.625 18.375L11.1 24.9C10.8 25.2 10.588 25.525 10.464 25.875C10.338 26.225 10.275 26.6 10.275 27C10.275 27.4 10.338 27.775 10.464 28.125C10.588 28.475 10.8 28.8 11.1 29.1L17.625 35.625C18.225 36.225 18.938 36.525 19.764 36.525C20.588 36.525 21.3 36.225 21.9 35.625C22.5 35.025 22.8 34.325 22.8 33.525C22.8 32.725 22.5 32.025 21.9 31.425L17.475 27ZM36.525 27L32.1 31.425C31.5 32.025 31.2 32.725 31.2 33.525C31.2 34.325 31.5 35.025 32.1 35.625C32.7 36.225 33.413 36.525 34.239 36.525C35.063 36.525 35.775 36.225 36.375 35.625L42.9 29.1C43.2 28.8 43.412 28.475 43.536 28.125C43.662 27.775 43.725 27.4 43.725 27C43.725 26.6 43.662 26.225 43.536 25.875C43.412 25.525 43.2 25.2 42.9 24.9L36.375 18.375C36.075 18.075 35.738 17.85 35.364 17.7C34.988 17.55 34.613 17.475 34.239 17.475C33.863 17.475 33.488 17.55 33.114 17.7C32.738 17.85 32.4 18.075 32.1 18.375C31.5 18.975 31.2 19.675 31.2 20.475C31.2 21.275 31.5 21.975 32.1 22.575L36.525 27ZM6 54C4.35 54 2.937 53.413 1.761 52.239C0.587 51.063 0 49.65 0 48V6C0 4.35 0.587 2.937 1.761 1.761C2.937 0.587 4.35 0 6 0H48C49.65 0 51.063 0.587 52.239 1.761C53.413 2.937 54 4.35 54 6V48C54 49.65 53.413 51.063 52.239 52.239C51.063 53.413 49.65 54 48 54H6Z" fill="black"/>
</svg>
